<svg width="534" height="534" viewBox="0 0 534 534" fill="none" xmlns="http://www.w3.org/2000/svg">
<path d="M0 0H145.737C157.619 0 167.452 9.2382 168.194 21.0965L200.25 534H20C8.9543 534 0 525.046 0 514V0Z" fill="url(#paint0_linear_192_232)"/>
<path d="M367.125 22.5C367.125 10.0736 377.199 0 389.625 0H534V514C534 525.046 525.046 534 514 534H367.125V22.5Z" fill="url(#paint1_linear_192_232)"/>
<path d="M0 0H161.677C164.804 0 167.602 1.93929 168.7 4.86657L367.125 534H183.562L0 0Z" fill="url(#paint2_linear_192_232)"/>
<path d="M534 0H372.478C369.275 0 366.426 2.03336 365.385 5.06187L183.562 534H367.125L534 0Z" fill="url(#paint3_linear_192_232)"/>
<defs>
<linearGradient id="paint0_linear_192_232" x1="166.875" y1="150.187" x2="-82.8876" y2="346.605" gradientUnits="userSpaceOnUse">
<stop offset="0.164874" stop-color="#B90B36"/>
<stop offset="0.621008" stop-color="#FB2056"/>
</linearGradient>
<linearGradient id="paint1_linear_192_232" x1="400.5" y1="116.812" x2="717.562" y2="267" gradientUnits="userSpaceOnUse">
<stop stop-color="#900EFD"/>
<stop offset="0.456381" stop-color="#00A6FB"/>
</linearGradient>
<linearGradient id="paint2_linear_192_232" x1="-50.0625" y1="-33.375" x2="467.25" y2="450.563" gradientUnits="userSpaceOnUse">
<stop offset="0.015625" stop-color="#FFF05A"/>
<stop offset="0.655624" stop-color="#FD7D3D"/>
<stop offset="0.98776" stop-color="#900EFD"/>
</linearGradient>
<linearGradient id="paint3_linear_192_232" x1="534" y1="0" x2="250.313" y2="534" gradientUnits="userSpaceOnUse">
<stop stop-color="#00A6FB"/>
<stop offset="1" stop-color="#900EFD"/>
</linearGradient>
</defs>
</svg>
